<svg width="51" height="36" viewBox="0 0 51 36" fill="none" xmlns="http://www.w3.org/2000/svg">
<g clip-path="url(#clip0_7_59)">
<path d="M39.4697 35.8228V17.3733L45.4609 12.1387L50.8333 9.2339V32.5669C50.8333 34.3684 49.305 35.8228 47.4241 35.8228H39.4697Z" fill="#4285F4"/>
<path d="M12.197 35.8228H4.24251C2.35599 35.8228 0.833333 34.363 0.833333 32.5669V9.2341L6.91849 12.5612L12.197 17.3733V35.8228Z" fill="#34A853"/>
<path d="M39.4697 17.3733L40.2849 10.1645L39.4697 3.265L25.8333 13.0324L12.197 3.265L11.2851 9.792L12.197 17.3733L25.8333 27.1406L39.4697 17.3733Z" fill="#EA4335"/>
<path d="M12.197 3.265V17.3733L0.833333 9.23391V4.89283C0.833333 0.866615 5.64583 -1.42862 9.01497 0.985993L12.197 3.265Z" fill="#FBBC04"/>
<path d="M50.8333 9.23394L45.607 12.9776L39.4697 17.3733V3.26502L42.6517 0.986017C46.0267 -1.42878 50.8333 0.866639 50.8333 4.89267V9.23375V9.23394Z" fill="#C5221F"/>
</g>
<defs>
<clipPath id="clip0_7_59">
<rect width="50" height="36" fill="white" transform="matrix(-1 0 0 1 50.8333 0)"/>
</clipPath>
</defs>
</svg>
