<svg width="42" height="42" viewBox="0 0 42 42" fill="none" xmlns="http://www.w3.org/2000/svg">
<path d="M39.375 0H2.29167C1.68388 0 1.10098 0.241443 0.671214 0.671214C0.241443 1.10098 0 1.68388 0 2.29167V39.375C0 39.9828 0.241443 40.5657 0.671214 40.9955C1.10098 41.4252 1.68388 41.6667 2.29167 41.6667H22.25V25.5208H16.8333V19.2708H22.25V14.5833C22.1378 13.4828 22.2677 12.3711 22.6307 11.3261C22.9936 10.2811 23.5808 9.32822 24.351 8.53419C25.1212 7.74016 26.0558 7.12425 27.0892 6.72966C28.1227 6.33507 29.2299 6.17136 30.3333 6.25C31.9548 6.24002 33.5756 6.32349 35.1875 6.5V12.125H31.875C29.25 12.125 28.75 13.375 28.75 15.1875V19.2083H35L34.1875 25.4583H28.75V41.6667H39.375C39.6759 41.6667 39.9739 41.6074 40.252 41.4922C40.53 41.3771 40.7827 41.2083 40.9955 40.9955C41.2083 40.7827 41.3771 40.53 41.4922 40.252C41.6074 39.9739 41.6667 39.6759 41.6667 39.375V2.29167C41.6667 1.99072 41.6074 1.69272 41.4922 1.41468C41.3771 1.13665 41.2083 0.884015 40.9955 0.671214C40.7827 0.458413 40.53 0.28961 40.252 0.174443C39.9739 0.0592759 39.6759 0 39.375 0Z" fill="#699BF7"/>
</svg>
