<svg width="51" height="50" viewBox="0 0 51 50" fill="none" xmlns="http://www.w3.org/2000/svg">
<path d="M44.3333 6.45625C42.8062 4.92917 40.9687 4.16667 38.8187 4.16667H12.8042C10.6542 4.16667 8.81666 4.92917 7.28958 6.45625C5.76249 7.98334 4.99999 9.82084 4.99999 11.9708V37.9854C4.99999 40.1354 5.76249 41.9729 7.28958 43.5C8.81666 45.0271 10.6542 45.7896 12.8042 45.7896H18.875C19.2708 45.7896 19.5687 45.775 19.7687 45.7479C20.0014 45.7013 20.2115 45.5772 20.3646 45.3958C20.5625 45.1875 20.6625 44.8854 20.6625 44.4896L20.6479 42.6458C20.6396 41.4708 20.6354 40.5417 20.6354 39.8542L20.0104 39.9625C19.6146 40.0354 19.1146 40.0667 18.5083 40.0583C17.8764 40.0467 17.2465 39.9833 16.625 39.8688C15.9633 39.7466 15.3405 39.468 14.8083 39.0563C14.251 38.6347 13.8354 38.0533 13.6167 37.3896L13.3458 36.7646C13.1176 36.2716 12.8308 35.8078 12.4917 35.3833C12.1042 34.8771 11.7104 34.5354 11.3125 34.3542L11.125 34.2188C10.9942 34.1251 10.8753 34.016 10.7708 33.8938C10.671 33.7803 10.5888 33.6525 10.5271 33.5146C10.4729 33.3875 10.5187 33.2833 10.6625 33.2021C10.8083 33.1188 11.0687 33.0792 11.45 33.0792L11.9917 33.1625C12.3521 33.2333 12.8 33.45 13.3312 33.8104C13.8689 34.177 14.318 34.6588 14.6458 35.2208C15.0625 35.9604 15.5625 36.525 16.15 36.9146C16.7375 37.3021 17.3292 37.4979 17.925 37.4979C18.5208 37.4979 19.0354 37.4521 19.4708 37.3625C19.8919 37.2754 20.301 37.1384 20.6896 36.9542C20.8521 35.7458 21.2937 34.8125 22.0167 34.1625C21.0799 34.0707 20.1516 33.9077 19.2396 33.675C18.3496 33.4305 17.4936 33.0757 16.6917 32.6188C15.8526 32.1619 15.1115 31.5447 14.5104 30.8021C13.9333 30.0792 13.4583 29.1313 13.0875 27.9583C12.7187 26.7833 12.5333 25.4271 12.5333 23.8917C12.5333 21.7063 13.2458 19.8458 14.6729 18.3083C14.0062 16.6667 14.0687 14.8229 14.8625 12.7833C15.3875 12.6188 16.1646 12.7417 17.1937 13.1479C18.2229 13.5542 18.9771 13.9021 19.4562 14.1896C19.9354 14.4813 20.3187 14.725 20.6083 14.9229C22.302 14.4516 24.0523 14.2146 25.8104 14.2188C27.6 14.2188 29.3333 14.4542 31.0146 14.9229L32.0437 14.2729C32.8354 13.7976 33.6704 13.3986 34.5375 13.0813C35.4958 12.7188 36.225 12.6208 36.7333 12.7833C37.5458 14.825 37.6167 16.6667 36.9479 18.3104C38.375 19.8458 39.0896 21.7063 39.0896 23.8938C39.0896 25.4292 38.9042 26.7896 38.5333 27.9708C38.1646 29.1542 37.6854 30.1021 37.0979 30.8167C36.4863 31.5498 35.7421 32.1611 34.9042 32.6188C34.0292 33.1063 33.1792 33.4583 32.3562 33.675C31.4443 33.9085 30.5159 34.0721 29.5792 34.1646C30.5167 34.9771 30.9875 36.2583 30.9875 38.0104V44.4896C30.9875 44.7958 31.0312 45.0438 31.1229 45.2333C31.165 45.3247 31.2251 45.4066 31.2996 45.4742C31.374 45.5419 31.4613 45.5939 31.5562 45.6271C31.7562 45.6979 31.9312 45.7438 32.0854 45.7604C32.2396 45.7813 32.4604 45.7875 32.7479 45.7875H38.8187C40.9687 45.7875 42.8062 45.025 44.3333 43.4979C45.8583 41.9729 46.6229 40.1333 46.6229 37.9833V11.9708C46.6229 9.82084 45.8604 7.98334 44.3333 6.45625Z" fill="black"/>
</svg>
