<svg width="51" height="50" viewBox="0 0 51 50" fill="none" xmlns="http://www.w3.org/2000/svg">
<path d="M45.2778 0C46.7512 0 48.1643 0.585316 49.2061 1.62718C50.248 2.66905 50.8333 4.08213 50.8333 5.55556V44.4444C50.8333 45.9179 50.248 47.3309 49.2061 48.3728C48.1643 49.4147 46.7512 50 45.2778 50H6.38888C4.91546 50 3.50238 49.4147 2.46051 48.3728C1.41864 47.3309 0.833328 45.9179 0.833328 44.4444V5.55556C0.833328 4.08213 1.41864 2.66905 2.46051 1.62718C3.50238 0.585316 4.91546 0 6.38888 0H45.2778ZM43.8889 43.0556V28.3333C43.8889 25.9316 42.9348 23.6283 41.2366 21.9301C39.5383 20.2318 37.235 19.2778 34.8333 19.2778C32.4722 19.2778 29.7222 20.7222 28.3889 22.8889V19.8056H20.6389V43.0556H28.3889V29.3611C28.3889 27.2222 30.1111 25.4722 32.25 25.4722C33.2814 25.4722 34.2705 25.8819 34.9999 26.6112C35.7292 27.3406 36.1389 28.3297 36.1389 29.3611V43.0556H43.8889ZM11.6111 15.4444C12.8488 15.4444 14.0358 14.9528 14.9109 14.0776C15.7861 13.2024 16.2778 12.0155 16.2778 10.7778C16.2778 8.19444 14.1944 6.08333 11.6111 6.08333C10.3661 6.08333 9.17201 6.57792 8.29163 7.4583C7.41125 8.33868 6.91666 9.53273 6.91666 10.7778C6.91666 13.3611 9.02777 15.4444 11.6111 15.4444ZM15.4722 43.0556V19.8056H7.77777V43.0556H15.4722Z" fill="#699BF7"/>
</svg>
